<svg xmlns:dc="http://purl.org/dc/elements/1.1/" xmlns:cc="http://creativecommons.org/ns#" xmlns:rdf="http://www.w3.org/1999/02/22-rdf-syntax-ns#" xmlns:svg="http://www.w3.org/2000/svg" xmlns="http://www.w3.org/2000/svg" xmlns:xlink="http://www.w3.org/1999/xlink" xmlns:sodipodi="http://sodipodi.sourceforge.net/DTD/sodipodi-0.dtd" xmlns:inkscape="http://www.inkscape.org/namespaces/inkscape" width="885.00586" height="726.01654" viewBox="-17.582 -4.664 87.246218 71.572926" version="1.1" id="svg15" sodipodi:docname="Flag_of_Nepal.svg" inkscape:version="1.0.1 (3bc2e813f5, 2020-09-07)">

  <g id="g875" transform="rotate(90,9.2674444,22.185944)">
    <use stroke="#314158" stroke-width="5.165" xlink:href="#a" id="use6" x="0" y="0" width="100%" height="100%"/>
    <path id="a" fill="#8f96a8" d="M -15,4.0230686 H 45 L -15,-33.546931 v 80 h 60 l -60,-60 z"/>
    <g fill="#ffffff" id="g13" transform="translate(0,-33.546931)">
      <path d="m 0,35.43 c 6.6,0 11.95,-5.35 11.95,-11.95 C 10.9,26.15 9,28.36 6.58,29.8 l -1.02,-0.76 2,-1.5 -2.42,-0.62 1.28,-2.17 -2.5,0.36 0.37,-2.48 -2.17,1.3 -0.62,-2.45 -1.5,2 -1.5,-2 -0.63,2.44 -2.16,-1.28 0.37,2.5 -2.5,-0.37 1.3,2.17 -2.44,0.62 2,1.5 -1,0.77 c -2.37,-1.4 -4.3,-3.56 -5.38,-6.32 0,6.6 5.35,11.95 11.95,11.95 z" id="path9"/>
      <path d="m -5.76,53.03 -5.36,-0.66 3.25,4.3 -4.97,2.12 4.97,2.1 -3.25,4.3 5.36,-0.66 -0.66,5.37 4.3,-3.25 2.12,4.98 2.1,-4.98 4.32,3.26 -0.66,-5.36 5.36,0.67 -3.25,-4.3 4.97,-2.1 L 7.87,56.7 11.12,52.4 5.76,53.05 6.42,47.69 2.12,50.94 0,45.95 -2.1,50.92 -6.42,47.67 Z" id="path11"/>
    </g>
  </g>
</svg>